# xmcd
#
# Track frame offsets:
#	150
#	13212
#	26343
#	45444
#	56587
#	74882
#	88907
#	104867
#	122744
#	137642
#	156440
#	171740
#	187163
#	202014
#	217168
#	234493
#	251659
#	271525
#	286855
#	303277
#	315385
#	333595
#	348163
#
# Disc length: 4794 seconds
#
# Revision: 1
# Processed by: cddbd v1.5.2PL0 Copyright (c) Steve Scherf et al.
# Submitted via: audiograbber 1.83.01
#
DISCID=6912b817
DTITLE=Paul Weller - Hit Parade
DYEAR=2006
DGENRE=Rock
TTITLE0=Town Called Malice
TTITLE1=Going Underground
TTITLE2=Shout To The Top!
TTITLE3=From The Floorboards Up
TTITLE4=Down In The Tube Station At Midnight
TTITLE5=Peacock Suit
TTITLE6=The Changingman
TTITLE7=The Eton Rifles
TTITLE8=Come On-Let's Go
TTITLE9=Sunflower
TTITLE10=Beat Surrender
TTITLE11=Walls Come Tumbling Down
TTITLE12=That's Entertainment
TTITLE13=Broken Stones
TTITLE14=Out Of The Sinking
TTITLE15=Long Hot Summer
TTITLE16=You're The Best Thing
TTITLE17=Wild Wood
TTITLE18=You Do Something To Me
TTITLE19=Hung Up
TTITLE20=My Ever Changing Moods
TTITLE21=Speak Like A Child
TTITLE22=Start!
EXTD=
EXTT0=
EXTT1=
EXTT2=
EXTT3=
EXTT4=
EXTT5=
EXTT6=
EXTT7=
EXTT8=
EXTT9=
EXTT10=
EXTT11=
EXTT12=
EXTT13=
EXTT14=
EXTT15=
EXTT16=
EXTT17=
EXTT18=
EXTT19=
EXTT20=
EXTT21=
EXTT22=
PLAYORDER=
